<svg xmlns="http://www.w3.org/2000/svg" viewBox="0 0 100 100">
  <!-- Background -->
  <rect width="100" height="100" fill="#f5e6d3" rx="15"/>
  
  <!-- Paper notes stack -->
  <rect x="15" y="20" width="30" height="35" fill="#ffd4a3" rx="2" transform="rotate(-8 30 37.5)"/>
  <rect x="40" y="15" width="30" height="35" fill="#ffe4b3" rx="2" transform="rotate(5 55 32.5)"/>
  <rect x="55" y="25" width="30" height="35" fill="#ffcba3" rx="2" transform="rotate(-3 70 42.5)"/>
  
  <!-- Lines on notes -->
  <line x1="18" y1="30" x2="40" y2="28" stroke="#8b7355" stroke-width="1" opacity="0.3"/>
  <line x1="18" y1="35" x2="40" y2="33" stroke="#8b7355" stroke-width="1" opacity="0.3"/>
  <line x1="45" y1="25" x2="65" y2="26" stroke="#8b7355" stroke-width="1" opacity="0.3"/>
  <line x1="45" y1="30" x2="65" y2="31" stroke="#8b7355" stroke-width="1" opacity="0.3"/>
  
  <!-- Bottom note (main) -->
  <rect x="20" y="50" width="60" height="40" fill="#fff8e7" rx="2"/>
  <line x1="25" y1="60" x2="75" y2="60" stroke="#d4a574" stroke-width="1.5" opacity="0.4"/>
  <line x1="25" y1="68" x2="75" y2="68" stroke="#d4a574" stroke-width="1.5" opacity="0.4"/>
  <line x1="25" y1="76" x2="60" y2="76" stroke="#d4a574" stroke-width="1.5" opacity="0.4"/>
</svg>
